name MidfieldersEyeExample
nRows=3
nColumns=4
inDegrees=yes
endheader
time	pelvis_tilt	pelvis_rotation	knee_angle_r
0.00	2.0	-1.0	18.0
0.02	2.2	-0.5	19.5
0.04	2.5	0.2	21.0
